<svg id="Layer_1" data-name="Layer 1" xmlns="http://www.w3.org/2000/svg" viewBox="0 0 16 16">
  <defs>
    <style>
      .cls-1 {
        fill: #fcd735;
      }

      .cls-2 {
        fill: #292633;
      }
    </style>
  </defs>
  <title>logo</title>
  <rect id="REC-R" class="cls-1" x="0.98" y="14.1" width="14.04" height="0.92" rx="0.09" ry="0.09"/>
  <path id="_Compound_Path_" data-name="&lt;Compound Path&gt;" class="cls-2" d="M1,1.13A.15.15,0,0,1,1.13,1h5.2A4.62,4.62,0,0,1,9.74,2.17a3.62,3.62,0,0,1,1,2.68v0a3.67,3.67,0,0,1-.69,2.32A4,4,0,0,1,8.41,8.44a.15.15,0,0,0-.07.22l2.6,3.8a.15.15,0,0,1-.12.23H8.17A.15.15,0,0,1,8,12.62L5.58,8.94H3.7a.15.15,0,0,0-.15.15v3.45a.15.15,0,0,1-.15.15H1.13A.15.15,0,0,1,1,12.54ZM6.16,6.66a2.14,2.14,0,0,0,1.46-.45A1.53,1.53,0,0,0,8.14,5V5A1.49,1.49,0,0,0,7.6,3.72,2.37,2.37,0,0,0,6.11,3.3H3.7a.15.15,0,0,0-.15.15V6.52a.15.15,0,0,0,.15.15Z"/>
  <path class="cls-2" d="M12.45,1H15V12.69H12.45Z"/>
</svg>
